# Blender v3.1.2 OBJ File: 'Map.blend'
# www.blender.org
mtllib Bonbas.mtl
o BBs_Cube.110
v -3.528466 -4.120078 6.589438
v -3.528466 4.120078 6.589438
v -3.528466 -4.120078 -6.589438
v -3.528466 4.120078 -6.589438
v 3.528466 -4.120078 6.589438
v 3.528466 4.120078 6.589438
v 3.528466 -4.120078 -6.589438
v 3.528466 4.120078 -6.589438
v -3.528466 -4.120078 0.000000
v -3.528466 7.484310 0.000000
v 3.528466 -4.120078 0.000000
v 3.528466 7.484310 0.000000
v -0.295501 4.667783 -4.400109
v -0.295495 9.641435 -6.832103
v 1.350855 4.992113 -3.248773
v 2.294596 10.151679 -5.020792
v 0.722002 5.516891 -1.385872
v 1.305267 10.977272 -2.090028
v -1.313004 5.516891 -1.385872
v -1.896258 10.977272 -2.090028
v -1.941858 4.992113 -3.248773
v -2.885586 10.151679 -5.020792
v -0.729887 10.011358 -3.755093
v -0.729887 11.846592 -4.279770
v -0.729887 9.826667 -4.511743
v -0.729887 12.047248 -5.053763
v 0.048976 10.011358 -3.755093
v 0.048976 11.846592 -4.279770
v 0.048976 9.826667 -4.511743
v 0.048976 12.047248 -5.053763
v -0.729887 13.947877 -3.735018
v -0.729887 14.148532 -4.509011
v 0.048976 14.148532 -4.509011
v 0.048976 13.947877 -3.735018
v -3.509672 3.486197 7.315729
v -3.094509 7.454353 6.637354
v -0.498929 3.461446 6.136927
v -0.133229 6.956828 5.539374
v -1.357188 2.599243 3.526706
v -0.794358 6.945996 2.741183
v 0.183164 5.212457 6.163105
v -1.949598 3.317593 6.944576
v -1.398971 7.646394 6.468132
v -3.426997 5.819001 7.501677
v -4.877175 3.034869 4.852072
v -4.373630 7.437536 4.082563
v -0.477329 4.724610 2.905231
v -1.397030 5.590112 7.405127
v -4.882752 5.464766 4.538668
v -3.090450 2.555886 4.212815
v -2.541722 7.800659 3.316195
v -5.560945 2.807596 2.090882
v -5.145781 6.775752 1.412506
v -2.550201 2.782843 0.912079
v -2.184501 6.278225 0.314527
v -2.217717 4.418197 0.047759
v -4.148007 2.590315 1.344952
v -3.799852 6.852133 0.352785
v -5.827878 5.024741 1.386329
v -4.247633 4.647076 0.144283
v -1.689863 7.936670 7.497897
v -2.168588 8.637209 5.889328
v -0.416086 7.796557 6.812863
v -0.837793 8.413623 5.395898
v -0.782241 6.024034 6.349618
v -1.261032 6.786523 4.562599
v -0.422726 8.277551 6.118657
v -1.006569 7.917636 7.257417
v -1.490979 8.789977 5.555667
v -2.045146 8.550134 6.720215
v -2.338407 6.261566 6.995547
v -2.851526 7.036862 5.200819
v -0.761349 6.369623 5.336404
v -1.158729 8.667232 6.507374
v -2.741132 6.702247 6.070465
v -1.506025 6.094264 6.766002
v -2.138815 7.020152 4.639803
v -4.729933 6.930951 -0.245563
v -4.065047 8.009822 1.058808
v -3.319946 6.835901 -0.583632
v -2.734252 7.786236 0.565378
v -3.124722 5.249094 0.383028
v -2.345615 6.427722 1.800031
v -2.901237 7.457609 -0.194423
v -4.063618 6.906303 -0.529271
v -3.355393 8.173192 0.806771
v -4.523657 7.730193 0.407135
v -4.725028 5.472025 0.916525
v -3.967158 6.667789 2.359163
v -2.460029 5.807665 1.009651
v -3.738071 7.813933 -0.062535
v -4.439813 6.140289 1.743712
v -3.943285 5.287969 0.557994
v -3.064434 6.713939 2.282135
vt 0.230469 0.511719
vt 0.230469 0.921875
vt 0.000000 0.800781
vt 0.000000 0.511719
vt 0.824219 0.511719
vt 0.824219 0.800781
vt 0.574219 0.800781
vt 0.574219 0.511719
vt 0.769531 0.511719
vt 0.769531 0.917969
vt 0.539062 0.800781
vt 0.539062 0.511719
vt 0.718750 0.511719
vt 0.718750 0.800781
vt 0.464844 0.800781
vt 0.464844 0.511719
vt 0.187500 0.507812
vt 0.187500 0.328125
vt 0.976562 0.328125
vt 0.976562 0.507812
vt 0.976562 0.507812
vt 0.976562 0.328125
vt 1.003906 0.511719
vt 1.003906 0.800781
vt 0.113281 0.015625
vt 0.113281 0.292969
vt 0.019531 0.292969
vt 0.019531 0.015625
vt 0.484375 0.015625
vt 0.484375 0.292969
vt 0.394531 0.292969
vt 0.394531 0.015625
vt 0.300781 0.292969
vt 0.300781 0.015625
vt 0.582031 0.292969
vt 0.582031 0.308594
vt 0.566406 0.316406
vt 0.558594 0.300781
vt 0.566406 0.285156
vt 0.207031 0.292969
vt 0.207031 0.015625
vt 0.031250 0.562500
vt 0.062500 0.562500
vt 0.066406 0.574219
vt 0.031250 0.574219
vt 0.066406 0.589844
vt 0.031250 0.589844
vt 0.027344 0.539062
vt 0.066406 0.535156
vt 0.058594 0.550781
vt 0.031250 0.550781
vt 0.097656 0.574219
vt 0.097656 0.585938
vt 0.042969 0.531250
vt 0.066406 0.531250
vt 0.066406 0.554688
vt 0.042969 0.554688
vt 0.097656 0.539062
vt 0.097656 0.550781
vt 0.097656 0.562500
vt 0.175781 0.382812
vt 0.171875 0.394531
vt 0.160156 0.390625
vt 0.160156 0.382812
vt 0.175781 0.375000
vt 0.160156 0.375000
vt 0.152344 0.382812
vt 0.156250 0.371094
vt 0.152344 0.390625
vt 0.144531 0.390625
vt 0.144531 0.382812
vt 0.148438 0.371094
vt 0.085938 0.339844
vt 0.097656 0.406250
vt 0.000000 0.406250
vt 0.003906 0.332031
vt 0.082031 0.457031
vt 0.000000 0.464844
vt 0.160156 0.367188
vt 0.171875 0.363281
vt 0.156250 0.359375
vt 0.171875 0.355469
vt 0.171875 0.402344
vt 0.156250 0.398438
vt 0.164062 0.410156
vt 0.156250 0.406250
vt 0.140625 0.390625
vt 0.128906 0.390625
vt 0.125000 0.382812
vt 0.140625 0.378906
vt 0.140625 0.398438
vt 0.128906 0.398438
vt 0.121094 0.402344
vt 0.121094 0.390625
vt 0.121094 0.382812
vt 0.109375 0.394531
vt 0.109375 0.382812
vt 0.113281 0.402344
vt 0.085938 0.339844
vt 0.097656 0.406250
vt 0.082031 0.457031
vt 0.140625 0.410156
vt 0.125000 0.406250
vt 0.136719 0.417969
vt 0.125000 0.414062
vt 0.121094 0.375000
vt 0.136719 0.371094
vt 0.121094 0.367188
vt 0.132812 0.363281
vt 0.097656 0.480469
vt 0.097656 0.492188
vt 0.082031 0.488281
vt 0.085938 0.480469
vt 0.097656 0.472656
vt 0.085938 0.472656
vt 0.078125 0.480469
vt 0.078125 0.472656
vt 0.078125 0.488281
vt 0.070312 0.488281
vt 0.070312 0.480469
vt 0.074219 0.472656
vt 0.164062 0.500000
vt 0.136719 0.503906
vt 0.132812 0.445312
vt 0.164062 0.445312
vt 0.113281 0.500000
vt 0.105469 0.445312
vt 0.082031 0.468750
vt 0.097656 0.468750
vt 0.082031 0.464844
vt 0.097656 0.460938
vt 0.097656 0.496094
vt 0.082031 0.492188
vt 0.093750 0.503906
vt 0.078125 0.500000
vt 0.070312 0.480469
vt 0.054688 0.484375
vt 0.054688 0.476562
vt 0.066406 0.472656
vt 0.070312 0.492188
vt 0.054688 0.488281
vt 0.050781 0.492188
vt 0.046875 0.484375
vt 0.046875 0.476562
vt 0.042969 0.484375
vt 0.042969 0.476562
vt 0.042969 0.492188
vt 0.109375 0.500000
vt 0.109375 0.445312
vt 0.140625 0.445312
vt 0.140625 0.503906
vt 0.167969 0.445312
vt 0.164062 0.500000
vt 0.070312 0.496094
vt 0.054688 0.496094
vt 0.066406 0.503906
vt 0.054688 0.500000
vt 0.050781 0.472656
vt 0.066406 0.468750
vt 0.050781 0.464844
vt 0.066406 0.460938
vn -1.0000 0.0000 0.0000
vn 0.0000 0.0000 -1.0000
vn 1.0000 0.0000 0.0000
vn 0.0000 0.0000 1.0000
vn 0.0000 0.8906 0.4547
vn 0.0000 0.8906 -0.4547
vn 0.5815 -0.3574 -0.7309
vn 0.9409 -0.0575 0.3338
vn 0.0000 0.1279 0.9918
vn 0.0000 0.9625 -0.2711
vn -0.9409 -0.0575 0.3338
vn -0.5815 -0.3574 -0.7309
vn 0.0000 -0.2371 -0.9715
vn 0.0000 0.2749 0.9615
vn 0.0000 0.2510 -0.9680
vn 0.0000 0.9680 0.2510
vn 0.0000 -0.2510 0.9680
vn 0.9690 0.1110 -0.2206
vn 0.9096 -0.3889 -0.1459
vn 0.5272 -0.2596 0.8091
vn 0.6476 0.3352 0.6842
vn 0.0684 0.4325 0.8990
vn 0.1110 -0.1532 0.9820
vn -0.8884 0.0266 0.4583
vn -0.8503 0.3441 0.3983
vn 0.1643 -0.9592 0.2301
vn -0.1027 -0.9565 0.2729
vn 0.4124 0.9051 -0.1032
vn -0.1340 0.9877 0.0807
vn 0.8522 0.0723 -0.5182
vn 0.8019 -0.4246 -0.4203
vn -0.1316 -0.4776 -0.8687
vn -0.0109 0.1174 -0.9930
vn -0.5901 0.2147 -0.7783
vn -0.5633 -0.3762 -0.7356
vn -0.9641 0.0016 0.2654
vn -0.9235 0.3199 0.2118
vn 0.0503 -0.9969 -0.0603
vn -0.1754 -0.9806 0.0878
vn 0.2942 0.8660 -0.4042
vn -0.2389 0.9530 -0.1863
vn 0.8599 0.0470 -0.5083
vn 0.9838 -0.1643 -0.0713
vn 0.5658 0.6573 0.4978
vn 0.4607 0.8849 -0.0689
vn -0.1185 0.9822 0.1459
vn 0.1356 0.7612 0.6341
vn -0.8576 0.1684 0.4860
vn -0.9339 0.2952 0.2016
vn 0.4828 -0.3314 0.8106
vn 0.2407 -0.3375 0.9100
vn 0.0400 0.4474 -0.8934
vn -0.4963 0.5251 -0.6914
vn 0.9703 0.0835 -0.2272
vn 0.7870 -0.2294 -0.5728
vn 0.0258 0.4786 -0.8776
vn 0.3086 0.8345 -0.4565
vn -0.2707 0.9318 -0.2417
vn -0.3916 0.5868 -0.7087
vn -0.9724 0.1304 0.1936
vn -0.8490 0.3233 0.4180
vn -0.1590 -0.5437 -0.8241
vn -0.4035 -0.5506 -0.7308
vn 0.5896 0.6292 0.5064
vn 0.0522 0.7065 0.7057
usemtl Material.004
s off
f 9/1/1 10/2/1 4/3/1 3/4/1
f 3/5/2 4/6/2 8/7/2 7/8/2
f 11/9/3 12/10/3 6/11/3 5/12/3
f 5/13/4 6/14/4 2/15/4 1/16/4
f 12/17/5 10/18/5 2/19/5 6/20/5
f 8/21/6 4/22/6 10/18/6 12/17/6
f 7/23/3 8/24/3 12/10/3 11/9/3
f 1/16/1 2/15/1 10/2/1 9/1/1
f 13/25/7 14/26/7 16/27/7 15/28/7
f 15/29/8 16/30/8 18/31/8 17/32/8
f 17/32/9 18/31/9 20/33/9 19/34/9
f 16/35/10 14/36/10 22/37/10 20/38/10 18/39/10
f 19/34/11 20/33/11 22/40/11 21/41/11
f 21/41/12 22/40/12 14/26/12 13/25/12
f 23/42/1 24/43/1 26/44/1 25/45/1
f 25/45/13 26/44/13 30/46/13 29/47/13
f 29/48/3 30/49/3 28/50/3 27/51/3
f 27/51/14 28/50/14 24/43/14 23/42/14
f 30/46/15 26/44/15 32/52/15 33/53/15
f 33/54/16 32/55/16 31/56/16 34/57/16
f 28/50/3 30/49/3 33/58/3 34/59/3
f 26/44/1 24/43/1 31/60/1 32/52/1
f 24/43/17 28/50/17 34/59/17 31/60/17
f 47/61/18 40/62/18 38/63/18 41/64/18
f 39/65/19 47/61/19 41/64/19 37/66/19
f 37/66/20 41/64/20 48/67/20 42/68/20
f 41/64/21 38/63/21 43/69/21 48/67/21
f 48/67/22 43/69/22 36/70/22 44/71/22
f 42/68/23 48/67/23 44/71/23 35/72/23
f 35/73/24 44/74/24 49/75/24 45/76/24
f 44/74/25 36/77/25 46/78/25 49/75/25
f 39/65/26 37/66/26 42/79/26 50/80/26
f 50/80/27 42/79/27 35/81/27 45/82/27
f 38/63/28 40/62/28 51/83/28 43/84/28
f 43/84/29 51/83/29 46/85/29 36/86/29
f 47/87/30 56/88/30 55/89/30 40/90/30
f 39/91/31 54/92/31 56/88/31 47/87/31
f 54/92/32 57/93/32 60/94/32 56/88/32
f 56/88/33 60/94/33 58/95/33 55/89/33
f 60/94/34 59/96/34 53/97/34 58/95/34
f 57/93/35 52/98/35 59/96/35 60/94/35
f 52/99/36 45/76/36 49/75/36 59/100/36
f 59/100/37 49/75/37 46/78/37 53/101/37
f 39/91/38 50/102/38 57/103/38 54/92/38
f 50/102/39 45/104/39 52/105/39 57/103/39
f 55/89/40 58/106/40 51/107/40 40/90/40
f 58/106/41 53/108/41 46/109/41 51/107/41
f 73/110/42 66/111/42 64/112/42 67/113/42
f 65/114/43 73/110/43 67/113/43 63/115/43
f 63/115/44 67/113/44 74/116/44 68/117/44
f 67/113/45 64/112/45 69/118/45 74/116/45
f 74/116/46 69/118/46 62/119/46 70/120/46
f 68/117/47 74/116/47 70/120/47 61/121/47
f 61/122/48 70/123/48 75/124/48 71/125/48
f 70/123/49 62/126/49 72/127/49 75/124/49
f 65/114/50 63/115/50 68/128/50 76/129/50
f 76/129/51 68/128/51 61/130/51 71/131/51
f 64/112/52 66/111/52 77/132/52 69/133/52
f 69/133/53 77/132/53 72/134/53 62/135/53
f 90/136/54 84/137/54 81/138/54 83/139/54
f 82/140/55 80/141/55 84/137/55 90/136/55
f 80/141/56 85/142/56 91/143/56 84/137/56
f 84/137/57 91/143/57 86/144/57 81/138/57
f 91/143/58 87/145/58 79/146/58 86/144/58
f 85/142/59 78/147/59 87/145/59 91/143/59
f 78/148/60 88/149/60 92/150/60 87/151/60
f 87/151/61 92/150/61 89/152/61 79/153/61
f 82/140/62 93/154/62 85/155/62 80/141/62
f 93/154/63 88/156/63 78/157/63 85/155/63
f 81/138/64 86/158/64 94/159/64 83/139/64
f 86/158/65 79/160/65 89/161/65 94/159/65
